v -0.2499991953 3.819885015 -0.2500003874
vn 1.189045022e-07 -9.288262248e-08 -1
v 8.245109484e-08 2.319886208 -0.2500000298
vn 1.0400327e-07 -9.039907667e-08 -1
v -0.2500000298 0.8198847175 -0.2499999553
vn 1.189044809e-07 -8.791554507e-08 -1
v 0.2500006258 3.819885015 -0.2500003576
vn 8.910205906e-08 -9.288262248e-08 -1
v 0.2499999851 0.8198846579 -0.2499998957
vn 8.910207328e-08 -8.791555217e-08 -1
v -0.2500000298 0.8198847175 0.2500000596
vn -4.439867496e-08 1.053002165e-07 1
v 0.2499999851 0.8198847175 0.2499999106
vn -7.420087655e-08 1.003331818e-07 1
v 8.245109484e-08 2.319886446 0.2499997765
vn -7.42009405e-08 1.003331889e-07 1
v -0.2499991953 3.819885015 0.2499996275
vn -7.420100445e-08 1.00333196e-07 1
v 0.2500006258 3.819885015 0.2499996722
vn -1.04003206e-07 9.536613987e-08 1
v -0.2500000298 0.8198847175 0.2500000596
vn -1 2.182455034e-07 -1.459631171e-08
v -0.2499991953 3.819885015 0.2499996275
vn -1 2.182455034e-07 -1.459630461e-08
v -0.2499991953 3.819885015 -0.2500003874
vn -1 2.182455034e-07 -1.459631171e-08
v -0.2500000298 0.8198847175 -0.2499999553
vn -1 2.182455034e-07 -1.459631882e-08
v 0.2500006258 3.819885015 0.2499996722
vn 1 -2.20729035e-07 2.949747291e-08
v 0.2499999851 0.8198847175 0.2499999106
vn 1 -2.182455034e-07 1.459631171e-08
v 0.2499999851 0.8198846579 -0.2499998957
vn 1 -2.20729035e-07 2.949747291e-08
v 0.2500006258 3.819885015 -0.2500003576
vn 1 -2.232125667e-07 4.439863588e-08
v -0.2499991953 3.819885015 0.2499996275
vn 1.040032771e-07 1 -7.549790126e-08
v 0.2500006258 3.819885015 0.2499996722
vn 1.040032771e-07 1 -7.549790126e-08
v 0.2500006258 3.819885015 -0.2500003576
vn 1.040032771e-07 1 -7.549790126e-08
v -0.2499991953 3.819885015 -0.2500003874
vn 1.040032771e-07 1 -7.549790126e-08
v 0.2499999851 0.8198847175 0.2499999106
vn -1.040032771e-07 -1 7.549790126e-08
v -0.2500000298 0.8198847175 -0.2499999553
vn -1.040032771e-07 -1 7.549790126e-08
v 0.2499999851 0.8198846579 -0.2499998957
vn -1.040032771e-07 -1 7.549790126e-08
v -0.2500000298 0.8198847175 0.249999851
vn -1.040032771e-07 -1 7.549790126e-08
# mm_gid 0
g mmGroup0
f 1//1 2//2 3//3 
f 2//2 4//4 5//5 
f 1//1 4//4 2//2 
f 3//3 2//2 5//5 
f 6//6 7//7 8//8 
f 9//9 8//8 10//10 
f 8//8 7//7 10//10 
f 9//9 6//6 8//8 
f 11//11 12//12 13//13 
f 11//11 13//13 14//14 
f 15//15 16//16 17//17 
f 15//15 17//17 18//18 
f 19//19 20//20 21//21 
f 19//19 21//21 22//22 
f 23//23 24//24 25//25 
f 23//23 26//26 24//24 
