v 0.01738485135 0.7824739814 0.7836220264 1 0.09999237955 0
vn -6.742299661e-07 -0.9566622376 0.2911999226
v 0.01738485135 0.7824758291 1.783620358 1 0.09999237955 0
vn -6.102280281e-07 -0.5314401984 0.8470958471
v -0.01950759999 1.782474041 0.7836257815 1 0.09999237955 0
vn 9.489237129e-08 0.616802752 0.7871177793
v -0.01950759999 0.7824758291 1.783620358 1 0.09999237955 0
vn -3.456453896e-07 0.009540368803 0.9999544621
v -0.01950759999 0.7824739814 0.7836220264 1 0.09999237955 0
vn -6.68723942e-07 -0.7710307837 0.6367978454
v 0.01738485135 1.782474041 0.7836257815 1 0.09999237955 0
vn -9.991188676e-08 0.330190897 0.943914175
v 0.01738485135 0.7824739814 0.7836220264 1 0.09999237955 0
vn 1 0 0
v 0.01738485135 0.7824758291 1.783620358 1 0.09999237955 0
vn 1 0 0
v -0.01950759999 1.782474041 0.7836257815 1 0.09999237955 0
vn -1 0 0
v -0.01950759999 0.7824758291 1.783620358 1 0.09999237955 0
vn -1 0 0
v -0.01950759999 0.7824739814 0.7836220264 1 0.09999237955 0
vn -1 0 0
v 0.01738485135 1.782474041 0.7836257815 1 0.09999237955 0
vn 1 0 0
v 0.01738485135 0.7824739814 0.7836220264 1 0.09999237955 0
vn 1.319376899e-12 3.744117294e-06 -1
v -0.01950759999 1.782474041 0.7836257815 1 0.09999237955 0
vn 1.319376899e-12 3.744117294e-06 -1
v -0.01950759999 0.7824739814 0.7836220264 1 0.09999237955 0
vn 1.649221124e-12 3.744117066e-06 -1
v 0.01738485135 1.782474041 0.7836257815 1 0.09999237955 0
vn 9.895326746e-13 3.744117066e-06 -1
# mm_gid 0
g mmGroup0
f 12//12 8//8 7//7 
f 9//9 11//11 10//10 
f 6//6 4//4 2//2 
f 6//6 3//3 4//4 
f 2//2 5//5 1//1 
f 2//2 4//4 5//5 
f 13//13 14//14 16//16 
f 13//13 15//15 14//14 
