v -0.2500000298 0.250000149 0.2499999553
vn -1 0 0
v -0.2500000298 2.458691597e-07 2.048909664e-07
vn -1 0 0
v -0.2500000298 -0.2499998659 0.2499999553
vn -1 0 0
v -0.2500000298 0.250000149 -0.2499999255
vn -1 0 0
v -0.2500000298 -0.2499998659 -0.2499999255
vn -1 0 0
v 0.2499999851 -0.2499998659 0.2499999553
vn 1 6.240194352e-07 -2.080063126e-07
v 0.2499999851 -0.2499998659 -0.2499999255
vn 1 4.160127673e-07 4.160127389e-07
v 0.2499997765 2.458691597e-07 2.048909664e-07
vn 1 2.080065826e-07 2.080065542e-07
v 0.2499997765 0.2499999404 0.2499999553
vn 1 -7.656110413e-22 6.928018303e-22
v 0.2499999851 0.2499999404 -0.2499999255
vn 1 -2.080064405e-07 6.240195489e-07
v 0.2499999851 -0.2499998659 0.2499999553
vn 0 0 1
v 0.2499997765 0.2499999404 0.2499999553
vn 0 0 1
v -0.2500000298 0.250000149 0.2499999553
vn 0 0 1
v -0.2500000298 -0.2499998659 0.2499999553
vn 0 0 1
v 0.2499999851 0.2499999404 -0.2499999255
vn 0 0 -1
v 0.2499999851 -0.2499998659 -0.2499999255
vn 0 0 -1
v -0.2500000298 -0.2499998659 -0.2499999255
vn 0 0 -1
v -0.2500000298 0.250000149 -0.2499999255
vn 0 0 -1
v 0.2499997765 0.2499999404 0.2499999553
vn 2.384186075e-07 1 4.959263726e-14
v -0.2500000298 0.250000149 -0.2499999255
vn 2.384186075e-07 1 4.959263726e-14
v -0.2500000298 0.250000149 0.2499999553
vn 2.384186644e-07 1 0
v 0.2499999851 0.2499999404 -0.2499999255
vn 2.384185791e-07 1 9.918525419e-14
v 0.2499999851 -0.2499998659 -0.2499999255
vn -7.450580597e-09 -1 0
v -0.2500000298 -0.2499998659 0.2499999553
vn -7.450580597e-09 -1 0
v -0.2500000298 -0.2499998659 -0.2499999255
vn -7.450580597e-09 -1 0
v 0.2499999851 -0.2499998659 0.2499999553
vn -7.450580597e-09 -1 0
# mm_gid 0
g mmGroup0
f 1//1 2//2 3//3 
f 2//2 4//4 5//5 
f 1//1 4//4 2//2 
f 3//3 2//2 5//5 
f 6//6 7//7 8//8 
f 9//9 8//8 10//10 
f 8//8 7//7 10//10 
f 9//9 6//6 8//8 
f 11//11 12//12 13//13 
f 11//11 13//13 14//14 
f 15//15 16//16 17//17 
f 15//15 17//17 18//18 
f 19//19 20//20 21//21 
f 19//19 22//22 20//20 
f 23//23 24//24 25//25 
f 23//23 26//26 24//24 
